<svg id="Layer_1" data-name="Layer 1" xmlns="http://www.w3.org/2000/svg" viewBox="0 0 3036.59 467.59"><defs><style>.cls-1{fill:#383838;}</style></defs><title>dash logo - grey</title><path class="cls-1" d="M275.06,239V115.17h80.3V467.81H275.67c-.36-3.38-.69-6.61-1.08-10.33-6.43,2.84-12.29,5.86-18.45,8.08-47.39,17.09-91,10.89-128.76-23.35-22.78-20.64-35.49-47.35-38.89-77.87C83.76,322,95.81,285,126.6,254.78c24.88-24.38,55-34,89.43-31,18.22,1.62,35.64,6.47,52.68,12.87C270.53,237.36,272.37,238,275.06,239Zm.22,111.14h-.23c0-9.49.17-19-.07-28.47-.14-6.1-1.58-12-6.31-16.33-11.3-10.31-24.37-16.63-39.93-17.12-25.89-.82-49.31,13.77-57.05,36.39a79.65,79.65,0,0,0-4.09,22c-.7,16,3,30.9,14.69,42.64,22.48,22.59,56.83,26.81,86.28,2.82,4.94-4,6.94-9.46,6.77-15.91C275.11,367.41,275.28,358.75,275.28,350.09Z" transform="translate(-87.5 -113.3)"/><path class="cls-1" d="M3044.19,239.62V115.06h79.9V467.42h-79.57c-.27-3.24-.53-6.32-.86-10.23-2.86,1.38-5.16,2.52-7.48,3.62-39.85,18.8-79.67,19.48-118.24-2.6-33.48-19.17-53-49.26-59.39-87-7.5-44.38,4.06-83.67,36.39-115.67,26.83-26.55,59.95-36,97-32.74,17.12,1.5,33.09,7.14,48.29,15C3041.23,238.37,3042.27,238.77,3044.19,239.62Zm.1,109.55H3044c0-9.66.58-19.37-.24-29-.42-4.82-2.18-10.59-5.41-13.91-11.18-11.49-25.1-17.86-41.43-18.11-24.62-.38-46.88,12.68-55,33.46a82.28,82.28,0,0,0-5.26,24.73c-1,15.95,2.89,30.92,14.54,42.67,22.42,22.62,56.63,27,86.3,3,5-4,7-9.43,6.84-15.89C3044.13,367.17,3044.29,358.17,3044.29,349.17Z" transform="translate(-87.5 -113.3)"/><path class="cls-1" d="M1397.41,115.35h79.52V239.69l6.23-3c39.22-19,78.74-20.83,117.4.47,37.4,20.59,57.53,53.76,62.36,95.67,4.61,40-6.78,75.46-34.42,105.17-24.11,25.92-54,37.31-89.28,34.86-19.43-1.35-38-6.35-56.17-13.08-1.51-.56-3-1-5.07-1.73-.46,3.51-.87,6.57-1.31,9.95h-79.26Zm79.78,232.14h.17q0,14.49,0,29a20.93,20.93,0,0,0,8,17c14.78,12.33,31.8,16.34,50.41,13.31,23-3.74,38.36-17.2,45.2-39.34,7.11-23,2.92-44.38-13.79-62.11-22.14-23.49-60.66-21.45-83.62-.4a19.16,19.16,0,0,0-6.37,15.15C1477.31,329.17,1477.19,338.33,1477.19,347.49Z" transform="translate(-87.5 -113.3)"/><path class="cls-1" d="M1232.7,467.9h-81.51v-5.3c0-39.32,0-78.65-.28-118a86.07,86.07,0,0,0-2.52-20.74c-7.35-28.45-35.41-40.59-61.19-26.53-6.55,3.57-12.6,8.1-18.6,12.58-5.25,3.92-6.44,9.78-6.43,16.05q.13,67.74.19,135.48v6.3H982V114.13h80.16v126.6c3.7-2.2,6.82-4,9.85-5.88,38.15-24.16,89.17-22.22,123.64,5.12,22.31,17.7,34.37,41.45,35.2,69.53,1.53,51.94,1.52,103.92,2.15,155.88A23.39,23.39,0,0,1,1232.7,467.9Z" transform="translate(-87.5 -113.3)"/><path class="cls-1" d="M665,467.5h-79.4c-.29-3.35-.57-6.44-.91-10.27-4.44,2.12-8.32,4.2-12.36,5.87-47.47,19.56-92.37,15.75-131.79-18.24-32-27.61-45.09-64.37-42.63-106.4,1.8-30.77,12.58-58.23,34-80.68,27-28.29,60.48-40.22,99.36-36.94,17.12,1.45,33.23,6.61,48.64,14.07,1.33.65,2.7,1.22,4.65,2.1.39-3.56.73-6.75,1.11-10.23H665ZM585.31,354.64h.16c0-10-.53-20,.13-29.91.88-13.15-3.53-23-15.57-28.51a108.93,108.93,0,0,0-23.68-7.42c-27.39-5.5-49.69,4.66-61.4,27.73-6.63,13.07-9.61,27-6.75,41.6,4.34,22.12,15.84,39,37.9,46.18,22.89,7.46,44.06,3,62.5-12.75,5-4.24,7-9.86,6.76-16.49C585.11,368.27,585.31,361.45,585.31,354.64Z" transform="translate(-87.5 -113.3)"/><path class="cls-1" d="M2023.5,580.8c6.63-15.87,12.77-30.76,19-45.59,7.46-17.61,14.88-35.24,22.63-52.72,3.22-7.24,3.06-13.87-.31-21q-52.3-111-104.34-222.21c-1.89-4-3.57-8.16-5.74-13.11h11.49c21.66.06,43.32.31,65,.06,7.11-.08,11,3.17,13.81,9.18,12,25.8,24.07,51.55,36.11,77.32q13.52,28.94,27,57.87c.47,1,1,1.95,2.08,3.88,4.49-10.4,8.68-19.92,12.71-29.49q22.93-54.49,45.8-109c3.67-8.72,5.31-9.81,14.55-9.81h74.49c-1.44,4.11-2.5,7.68-3.93,11.08Q2183.5,404.37,2113,571.48c-3.39,8-6.21,9.48-14.95,9.41-22.5-.17-45-.08-67.49-.09Z" transform="translate(-87.5 -113.3)"/><path class="cls-1" d="M1949.39,370.19H1777a52.7,52.7,0,0,0,11.15,22.38c14.81,17.84,47.32,23.42,66.73,11.5a25.51,25.51,0,0,0,5.23-3.81c6.24-6.61,13.88-8.14,22.71-7.94,19.48.45,39,.14,58.48.14h7.19c-3.47,9-5.73,17.59-9.85,25.14-13.29,24.39-34.55,39.77-60,49.47-26.84,10.24-54.45,9.4-82.17,3.75-23.79-4.84-45.41-14.1-63.12-31.17-18.81-18.13-28.92-40.76-33.65-66.07-5.21-27.83-3.76-55.19,7.7-81.3,17-38.69,47.27-60.92,88.29-68.93,24.5-4.78,49-5.11,73.11,2.47,39.86,12.53,81.49,52.66,81.44,111.73C1950.31,348.19,1949.73,358.82,1949.39,370.19Zm-76.4-48c-4.49-25.95-22.57-40.38-48.72-39.4-24.52.93-45.22,18.08-47.27,39.4Z" transform="translate(-87.5 -113.3)"/><path class="cls-1" d="M2817.85,467.3h-81.66v-5.93c-.05-39.33,0-78.65-.21-118-.07-15.21-3.12-29.64-14.67-40.65-12.15-11.59-26.71-13.88-42.15-8.41a80.66,80.66,0,0,0-19.62,10.6c-9.54,6.81-12.89,17-12.82,28.44q.29,49,.63,97.92c.07,12,0,23.94,0,36.21h-80.22V226.72h79c.62,3.24,1.26,6.56,2,10.51,6.72-2.67,13-5.13,19.28-7.66,15.18-6.13,30.57-10.95,47.22-11.55,46.5-1.68,87.7,28.49,98.24,73.85,3.28,14.12,4.38,29,4.61,43.55.68,42.64.43,85.29.53,127.94C2818,464.5,2817.92,465.63,2817.85,467.3Z" transform="translate(-87.5 -113.3)"/><path class="cls-1" d="M2394.07,220.05c42.08.74,77.26,13.78,103.91,45.52,18.68,22.24,27.36,48.39,28.21,77.27.88,29.87-6.24,57.5-24,81.79-21.07,28.78-50,44.91-85,50-36,5.25-70.13-.38-100.54-21.4-31-21.4-47.93-51.54-52.46-88.67-3.48-28.5.48-55.91,14.85-81.08,21.44-37.55,55.06-56.58,97.09-62.13C2382.56,220.51,2389.08,220.4,2394.07,220.05Zm55.7,128.22c-.2-2.83-.34-5.49-.58-8.14-3.68-41.55-51.15-64-85.17-40-20,14.15-25.92,34.53-22.81,58.05,4.86,36.84,42.68,58.49,76.07,43.06C2439.6,391,2448.66,371.78,2449.77,348.27Z" transform="translate(-87.5 -113.3)"/><path class="cls-1" d="M703.83,386c3-.22,5.28-.56,7.59-.54,18.65.17,37.3.42,55.94.64,4.94.05,8.42,1.83,10.43,6.8,7,17.25,21.47,22.13,38.37,22.1A257.71,257.71,0,0,0,842,413.3c9-.94,14.22-5.88,14.62-13,.43-7.56-4-13-13.2-14.94-15.46-3.27-31.05-5.91-46.52-9.12-11.23-2.34-22.51-4.63-33.49-7.88-50.25-14.85-59.68-64.66-43.14-100.14,8-17.07,21.3-28.78,38.25-35.58,46.06-18.45,92-18.27,136.54,4.86,25,13,37.08,35.38,40,63,.1,1,0,2,0,3.22a31.16,31.16,0,0,1-3.49.4c-21,0-42,.08-63-.1-1.66,0-4.28-1.3-4.82-2.65-7-17.77-21.14-24-38.9-23.77a107.53,107.53,0,0,0-19.76,2.52c-8.91,1.81-13.77,7.4-13.74,14.74,0,7.54,5.2,13.42,14,15.22,14.18,2.89,28.53,5,42.6,8.32,15.83,3.76,31.88,7.3,47,13.05,57.94,22,50.45,93.17,18.73,118.16-17,13.42-36.14,20.88-57.21,24.17-31.75,5-63.06,4.05-93.48-7.55-35.12-13.41-54.35-39.13-59-76.16C704,388.93,704,387.79,703.83,386Z" transform="translate(-87.5 -113.3)"/><path class="cls-1" d="M523.59,113.3c15.15.07,27.18,11.73,27.07,26.25-.12,14.74-11.9,26.13-27.13,26.21s-27.41-11.66-27.33-26.52C496.27,124.73,508.42,113.24,523.59,113.3Z" transform="translate(-87.5 -113.3)"/><path class="cls-1" d="M594.43,113.3c15.18,0,27.23,11.56,27.23,26.1,0,14.91-12.09,26.5-27.47,26.36-15.17-.15-27-11.71-27-26.36S579.27,113.3,594.43,113.3Z" transform="translate(-87.5 -113.3)"/><path class="cls-1" d="M1796.59,133.3c15.15.07,27.18,11.73,27.07,26.25-.12,14.75-11.9,26.13-27.13,26.21s-27.41-11.66-27.33-26.52C1769.27,144.73,1781.42,133.24,1796.59,133.3Z" transform="translate(-87.5 -113.3)"/><path class="cls-1" d="M1867.61,133.3c15.15.08,27.18,11.76,27.05,26.28-.13,14.74-11.93,26.11-27.16,26.18s-27.39-11.68-27.3-26.55C1840.29,144.71,1852.44,133.23,1867.61,133.3Z" transform="translate(-87.5 -113.3)"/></svg>