<?xml version="1.0" encoding="UTF-8"?>
<svg width="60px" height="60px" viewBox="0 0 60 60" version="1.1" xmlns="http://www.w3.org/2000/svg" xmlns:xlink="http://www.w3.org/1999/xlink">
    <!-- Generator: sketchtool 59.1 (101010) - https://sketch.com -->
    <title>E2481A20-0DBE-457D-9383-64295A0D921F</title>
    <desc>Created with sketchtool.</desc>
    <g id="Page-1" stroke="none" stroke-width="1" fill="none" fill-rule="evenodd">
        <g id="Earn" transform="translate(-717.000000, -423.000000)" fill-rule="nonzero">
            <g id="fountane_logo_light_small" transform="translate(717.000000, 423.000000)">
                <path d="M29.5932215,59.186443 C38.2233978,59.186443 45.9907426,55.492222 51.4001772,49.5988586 C56.235166,44.3313314 59.186443,37.3069302 59.186443,29.5932215 C59.186443,13.2493366 45.9371065,0 29.5932215,0 C13.2493366,0 0,13.2493366 0,29.5932215 C0,45.9371065 13.2493366,59.186443 29.5932215,59.186443 Z" id="Oval" fill="#FFFFFF"></path>
                <path d="M20.135594,41.7192429 L20.135594,23.6226392 C20.135594,18.4954178 24.2920282,14.3389836 29.4192496,14.3389836 L35.9129577,14.3389836 C37.4538032,14.3389836 38.702905,15.5880857 38.702905,17.1289311 L38.702905,17.1289311 C38.702905,18.6697766 37.4538032,19.9188786 35.9129577,19.9188786 L30.0803963,19.9188786 C28.0061813,19.9188786 26.3246977,21.6003622 26.3246977,23.6745772 L26.3246977,41.7192429 C26.3246977,43.4283168 24.9392197,44.8137948 23.2301459,44.8137948 L23.2301459,44.8137948 C21.5210721,44.8137948 20.135594,43.4283168 20.135594,41.7192429 Z" id="Fountane-Copy" fill="#383838"></path>
                <circle id="Oval-Copy-26" fill="#0887FF" cx="32.7966115" cy="29.7457639" r="3.81355947"></circle>
            </g>
        </g>
    </g>
</svg>